<svg xmlns="http://www.w3.org/2000/svg" width="1365.333" height="1365.333" viewBox="0 0 1024 1024"><path d="M826.5 87.9c-12.1 4.1-14.3 5.5-15.1 9.6-.7 3.8-4 7.1-10.7 10.8-2.2 1.2-4.7 2.7-5.7 3.2-.9.6-5.9 5.3-11.1 10.6S771 134.5 766.6 138c-4.3 3.4-11.7 10.2-16.5 15.1s-9.2 8.9-9.7 8.9-1.8 1.3-2.9 2.9c-2.2 3.2-9.4 11.6-14 16.5-1.6 1.8-5 5.4-7.4 8.1-2.4 2.8-9.4 10.1-15.5 16.4s-11.8 12.4-12.6 13.6c-.8 1.3-4.6 5.6-8.5 9.7-3.8 4.2-9.2 10.4-12 13.9-2.7 3.5-6.3 7.6-7.9 9.1-1.5 1.5-3.5 4.1-4.5 5.7-2 3.6-13.9 16.2-20.3 21.3-7.9 6.4-13.3 7.4-17.3 3.3-1.5-1.4-2.5-3.6-2.5-5.1s-.5-4.2-1.2-6c-1.3-3.8-.1-12.1 3.1-20.4 1.1-3 2.1-6.2 2.1-7.1 0-1.6 2.6-8.7 6-16.4.9-2.2 2.3-6.6 3-9.8.7-3.1 1.9-6.2 2.7-6.8.7-.6 1.3-1.9 1.3-2.9s.6-2.3 1.4-2.9c1.2-1 4-8.9 4.1-11.6 0-.6.5-2.4 1.1-4 2.1-5.6 3.4-10.1 3.4-11.7 0-.9.6-2.1 1.4-2.7 1.2-1 2.2-4.3 3.2-10.6.1-1.1 1-5.8 1.9-10.5 1.6-8.1 1.6-11.7-.1-18.5-1.6-6.9-17.4-19.5-24.5-19.5-4.8 0-13 3.7-17.1 7.7-2.1 2-3.8 4.2-3.8 4.8 0 .5-1.5 3.9-3.3 7.5s-3.9 8.7-4.6 11.5c-.8 2.7-2.2 7.9-3.3 11.5-2.4 8.4-3.4 12.1-4.8 19.4-.7 3.2-2.4 9.1-3.9 13-3.8 9.9-5.1 13.9-5.1 16.3 0 2.1-2.9 11-5.3 16.5-2.9 6.3-5.8 17-7.2 26.1-1.3 9.1-1.8 11.3-3.5 15.2-.5 1.1-1.4 5.3-2 9.4-.6 4-1.5 8.2-2 9.2-.6 1-1 3.5-1 5.6 0 2.2-.4 4.3-.8 4.8-.5.6-1.9 4.8-3.2 9.5s-2.7 9-3.2 9.6c-1.6 2.1-7.9 21.8-8.9 27.9-1 6-6.1 19.6-8.5 22.5-.6.8-2.4 4.4-3.9 7.9-1.4 3.5-3.8 8.2-5.2 10.5-7 11-11.3 17.4-12.7 18.5-.8.7-3.6 4.1-6.2 7.7-2.6 3.5-5.1 6.4-5.6 6.4-.4 0-.8.6-.8 1.2 0 .7-6.4 7.6-14.2 15.3-13.7 13.4-16.7 16.7-25.8 28-4.5 5.6-4.7 5.7-13.2 17-3.3 4.4-8.3 10.5-11.1 13.5-6.6 7.2-12.5 14.4-15.8 19.5-2.3 3.5-15.1 18.8-22.4 26.7-1.4 1.5-2.5 3-2.5 3.4s-2.1 3-4.6 5.8-8.7 9.9-13.7 15.7c-8.2 9.4-12.1 14.3-24.4 30.2-1.8 2.3-4.8 6.2-6.7 8.7-2 2.5-5.7 7.6-8.3 11.5-5 7.3-6.8 9.6-9.3 12.4-4.2 4.4-17.2 21.8-21.3 28.5-1.7 2.8-4 6-5 7.1-1.1 1.1-3.5 4.5-5.4 7.5-2 3-5.4 7.6-7.7 10.1-7.1 7.8-9.7 11.2-11.7 14.8-1.1 2-4.4 7-7.4 11.1-3.1 4.1-5.8 8.2-6.2 9-.3.8-1.7 2.7-3.1 4.2-1.3 1.4-4.5 6-7.1 10.2-2.5 4.1-7.3 11.4-10.7 16.3-3.3 4.8-6.3 9.6-6.7 10.7-.4 1-1.6 3-2.8 4.5-1.1 1.4-4.5 6.4-7.5 11.1-7.9 12-10.9 15-15.4 15-4.2 0-8.4-3.8-9.2-8.3-.3-1.5-.1-8.1.4-14.5.4-6.4 1.3-18 1.8-25.7 1.2-16.7 2.5-27.5 3.9-33.2 1.2-4.6 2.8-13.8 4.3-24.8.5-3.9 1.3-14.9 1.8-24.5.7-17 1.1-19.7 4.4-34.5.9-3.9 2.3-10.5 3.1-14.8s1.8-8.4 2.2-9c.4-.7 1.1-3.5 1.4-6.2.4-2.8 1.2-6.8 1.9-9 .6-2.2 1.3-7.4 1.5-11.5s.8-9.1 1.4-11c.5-1.9 1.4-6.9 2.1-11.1.7-5.1 2.3-9.9 4.6-14.5 5.8-11.3 12.3-22 14.4-23.9 1.1-1 2-2.2 2-2.7s1.4-2.6 3.1-4.7c1.6-2.1 3.8-5.2 4.7-6.9 4.5-7.9 17.9-24.1 30.9-37 7.8-7.8 14.7-14.2 15.2-14.2s1.3-.9 1.6-2 1.2-2 1.8-2c1.5-.1 10.7-8.7 10.7-10.1 0-.5 1.1-1.4 2.5-1.9s2.5-1.4 2.5-2c0-.5.7-1 1.5-1s1.5-.6 1.5-1.3c0-.8 1.4-3 3.2-5.1 4.1-4.8 5.9-8.3 5.1-10.2-.4-1.1 0-1.5 1.3-1.2 1 .2 2.2-.6 2.9-1.7.5-1.1 2.3-4.1 3.8-6.7 1.9-3.1 2.6-5.4 2.2-6.8-.4-1.1-1.1-1.8-1.6-1.5-1.4.9-1.1-.5.6-2.1.8-.9 1.5-2.6 1.5-3.8 0-2.7-2.4-7.9-4.5-9.6-.8-.7-1.5-1.7-1.5-2.2 0-1.5-5.5-6.4-8.8-7.7-5.1-2.1-12.6.8-19.5 7.6-3.2 3.1-5.7 6.2-5.7 6.8 0 .7-1.1 2-2.5 2.9-2.3 1.5-4.9 4.8-9.5 11.6-.8 1.3-3.3 4.5-5.5 7.2s-4.9 6.2-6 7.7c-1.2 1.5-4.5 5.3-7.5 8.4s-7.4 7.7-9.7 10.4c-8.3 9.3-16.8 18-18.8 19-1.1.5-4 .8-6.5.6-6.4-.4-8.9-3.8-9-11.9 0-3.3.7-8.3 1.6-11 .8-2.7 1.9-7.8 2.4-11.4.4-3.6 1.5-9.2 2.5-12.5.9-3.3 2.1-7.8 2.6-10 1.6-7.1 3.2-12 4.6-13.6.8-.9 1.6-4 2-7 .3-3 1.2-6.3 1.9-7.3.7-1.1 2.1-4.4 2.9-7.5.9-3.1 2.1-6.6 2.6-7.9s.9-3.6.9-5.2c0-3.8 1.8-11.2 4.1-17.4 1.1-2.7 1.9-6.4 1.9-8.3 0-2.1.6-3.6 1.5-3.9 1-.4 1.5-1.9 1.5-4.3 0-2 .9-5.4 2-7.6s2-4.5 2-5.2.4-1.3.9-1.3 1.1-2.4 1.4-5.3c.2-2.8 1-7 1.6-9.2 2.2-7.5 5.2-21 5.9-26.7.4-3.1 1.5-6.5 2.5-7.6s1.7-3.5 1.7-5.9.7-5 1.9-6.4c1-1.4 2-4.8 2.4-8 .3-3.1 1-6.5 1.5-7.5 4.9-8.9 6.2-34.4 2.5-47.4-.8-3-1.8-7.1-2.1-9.1-.5-2.3-1.8-4.6-3.7-6.2-3.1-2.5-12-5.7-16.1-5.7-3.4 0-13.9 5.6-16.7 9-1.4 1.6-3 3-3.5 3-.6 0-2.1 1.3-3.4 2.9-2.3 2.9-3.8 5.2-9.3 14.7-1.6 2.8-3.5 5.8-4.2 6.6-.6.7-1.7 2.5-2.3 3.8-.5 1.4-1.9 3.8-3 5.5-1 1.6-2.7 4.6-3.6 6.5s-2.5 5.1-3.5 7.1-1.9 4.2-1.9 4.8c0 .7-1.2 3.8-2.6 6.9-4.7 10.3-5.2 11.6-7.9 20.2-4.3 13.6-4.5 14.5-4.5 17.8 0 4.7-2.8 11.3-6.2 14.5-2.4 2.3-3.7 2.8-7.1 2.5-6.3-.5-8.4-4.3-8.8-15.6-.4-13.9.1-26.5 1.2-29.4.6-1.5.8-4.4.4-6.5-.3-2.1-1.1-9.3-1.6-16-.9-10.7-1.4-13.1-4.8-20.8-5.2-11.7-6.9-13.6-11.8-12.8-5.4.8-10.2 3.2-12 6-1.5 2.3-3.5 11.6-4.9 22.3-.3 2.5-1 5.4-1.5 6.5-1 2.3-1.6 12.4-2.5 41-.5 17-.3 20.9 1.1 26 1 3.3 2 7.8 2.4 10s1.3 5 1.9 6.1c.6 1.2 1.8 5.9 2.6 10.5 2.3 13 4.6 21.1 6.7 24.1 4 5.6 5.3 14.1 5.3 33.3.1 27.3-2.1 49.4-6 62.5-.9 3-1.8 7.7-2 10.4-.3 2.7-1.6 11.9-3.1 20.5-1.4 8.6-3 20.8-3.4 27.1-1.3 17.3-3.9 36.1-5.8 42-2.4 7.3-3.3 13-4.1 28-.5 8.5-1.4 18-2 21s-1.5 8.9-2 13-1.4 9.1-1.9 11c-7.3 26.9-13.4 34.7-23.9 30.5-3.8-1.6-10.2-8.8-11.6-13.3-.4-1.2-1.1-2.2-1.5-2.2s-1.3-1.2-2-2.7c-1-2.2-4.6-8.1-6.9-11.3-.2-.2-.7.2-1.2 1-.8 1.2-1.8.7-5.2-2.7-2.4-2.3-6.5-6.3-9.1-8.8-2.7-2.6-4.6-4.9-4.3-5.2s-.4-1.3-1.5-2.2c-1.9-1.5-3.5-6.8-5.9-19.1-1.8-9.3-9.3-30.9-11.1-32.1-.7-.4-1.3-1.7-1.4-3s-.3-2.9-.4-3.6c-.1-1.5-3.9-2.7-7.4-2.4-1.5.1-3.4-.3-4.2-.9s-1.9-.9-2.5-.5c-1.3.8-1.3 7.2 0 8 1.5.9 1.2 3.5-.3 3.5-.8 0-1.9 1-2.4 2.2-.9 1.8-1.1.1-1-7.3.2-8.3-.1-10-1.7-11.8-1.8-2-2-2-3.8-.4-1.7 1.5-1.9 1.5-3.2-.2-1.5-2.1-1.8-22.7-.3-24.1 1.3-1.3.8-2.4-1.2-2.4-2.3 0-4.2 2.2-5.8 6.9-1.8 5.2-1.6 11.8.7 18.1 1.1 3 2 6.4 2 7.5s.6 2.9 1.4 4c.7 1.1 1.6 5.8 1.9 10.5.7 9.3 5.1 25 10.2 36.5 1 2.2 2.1 5.3 2.5 7 1.5 5.8 4.7 13.5 6.2 15.2.9 1 2.9 4.9 4.6 8.8 1.6 3.8 4.4 10.4 6.2 14.5s4.8 12.2 6.7 18c2.8 8.6 9.4 23.4 18.8 42 .7 1.4 2 5.2 3 8.5.9 3.3 2 6.9 2.5 8 .4 1.1 1.7 4.7 3 8 1.2 3.3 3 7.8 4 10 2.5 5.6 4.1 10.3 5 15 .5 2.2 1.3 5.6 1.9 7.5 4.7 16.1 6.5 33.7 5.7 57-1.3 39.9-3.2 56.2-8.5 72.6-1.1 3.4-2.7 12-3.5 19.2-2.2 17.9-3.5 21.7-17.5 51.3-1.7 3.7-3.1 7.1-3.1 7.7s-2.5 5.9-5.5 11.9c-5.6 10.7-6.5 12.5-9.6 17.3-.9 1.4-4.4 7.9-7.9 14.5s-7.1 13.2-8.2 14.7c-1 1.4-1.8 3-1.8 3.5 0 .6-.9 1.8-2 2.8s-2 2.2-2 2.8c0 1.2-8.8 14.7-11.2 17-1 1-1.8 2.2-1.8 2.7 0 .6 32.6 1 88.5 1 57.1 0 88.5-.3 88.5-1 0-1 6.2-4.6 11.5-6.6 7.3-2.7 24.2-9.6 25.7-10.5 1-.5 2.5-.9 3.3-.9s8.1-2.2 16.3-4.9c23.8-7.8 32.7-9.8 57.7-12.5 4.9-.5 17.2-2.4 35-5.4 3.3-.6 6.7-1.3 7.5-1.6s4.7-.8 8.5-1c3.9-.3 9.9-1 13.5-1.6 7.4-1.2 9.1-1.4 14-1 1.9.1 17.5.2 34.5.1 37.7-.1 59.7.6 64.8 2.1 5.4 1.6 24.1-1.3 29-4.4 5.9-4 8.7-8.8 8.7-15.3 0-5-.4-6.2-3.6-10.1-2-2.4-4.8-4.7-6.1-5-1.4-.4-6.6-2.8-11.7-5.3-7-3.6-11.1-5-17.6-6-8.5-1.2-12.7-2-23-4.2-3.6-.7-11.1-.9-21.4-.6-8.7.3-16.9.2-18.2-.3s-3.2-2.5-4.1-4.4c-1.5-3.3-1.5-3.8.1-7.5 1.6-3.4 2.9-4.4 9.5-7.4 6.7-3.1 32-17.6 44.1-25.3 5.5-3.6 16.4-9.5 24.8-13.5 12.4-5.9 30.7-8.3 60.7-8.1 12.1.1 25.8.2 30.5.3 4.7 0 20-.4 34-.9 29-1 32.2-1.5 70.2-11.2 6.3-1.6 30.1-13.8 33.8-17.3 1.9-1.8 4.3-4.5 5.3-6 3.8-5.9.8-20.4-5.5-26.4-3.7-3.4-11.8-7.8-16.1-8.8-2.7-.6-14.6 2.2-21.1 5-1.7.7-5.1 1.9-7.6 2.5-2.5.7-6.9 2.1-9.9 3.2-3.7 1.3-10.2 2.2-21.5 2.8-8.8.5-20.4 1.9-25.6 3-10.7 2.2-16.4 2.4-26.3 1-13.1-1.9-19.5-7.5-20.4-17.8-.7-7.5.8-10.7 9-19 7.4-7.6 12.7-11 35.1-22.5 9.3-4.8 18-9.6 19.5-10.6 2.8-2 16.1-8.4 20.1-9.6 1.4-.4 5-2 8-3.5s7.1-3.4 9-4.1 4.6-2 6-3c1.4-.9 5-2.9 8-4.3s7.5-3.7 10-5.1 5.2-2.5 6-2.5c.9 0 2.4-.6 3.5-1.4 1.8-1.2 3.5-1.7 12-3.2 1.7-.3 4.5-1.2 6.3-2 7-3.1 9.8-4.2 13.2-5.4 5.1-1.8 7.5-2.9 17.3-8.2 4.8-2.6 9.4-4.8 10.3-4.8 2.9 0 16.4-6.8 16.4-8.3 0-.8 1.8-3 4.1-4.8 2.2-1.9 7.6-6.7 12-10.8 6.6-6.3 7.9-7.9 7.9-10.6 0-1.7.3-3.5.7-3.9.5-.4 1.3-3.8 1.9-7.4 1.6-9.7-.5-13.9-10.6-20.7-7.4-5-7.4-5-14.9-4.8-11.4.4-25.7 4.1-32.1 8.4-1.4.9-5.9 2.4-10 3.3-4.1 1-11.8 3.1-17 4.7s-10.2 2.9-11 2.9-4 .9-7 2.1c-3 1.1-6.8 2.5-8.5 3.1-1.6.5-3.9 1.4-5 1.8-1.1.5-6.3 2.3-11.5 4-5.2 1.8-11.4 4.1-13.7 5.1-2.4 1-4.9 1.9-5.7 1.9s-2.8.5-4.3 1.1-3.8 1.5-5 2c-7.6 3-16.2 7.1-20.3 9.9-1.4.9-4.1 2.3-6 3s-7 3.1-11.3 5.2-8.5 3.8-9.3 3.8-1.7.6-2 1.4c-.3.7-2.8 2.3-5.7 3.6-2.9 1.2-9.2 4.2-14.2 6.6-4.9 2.3-10.6 5-12.5 5.8-3.5 1.6-7.3 3.7-19 10.9-3.4 2.1-9.7 6.9-14 10.8s-9.1 7.9-10.6 9c-2.8 1.8-7 5.2-32.5 26.7-6.7 5.7-12.9 10.6-13.8 10.9-.9.4-2.3 1.2-3.2 2s-3.2 2.2-5 3.2c-8 4.1-17.9 9.8-25.2 14.3-4.2 2.6-9.6 5.6-12 6.5-2.3.9-4.4 1.9-4.7 2.3-1.1 1.3-7.8 5-9.2 5-.9 0-2.6.9-4 1.9-1.4 1.1-5.1 3.4-8.4 5.2-5.8 3.2-10.4 6-23.6 14.5-3.7 2.4-7.9 4.4-9.2 4.4s-2.9.7-3.6 1.5-1.9 1.5-2.6 1.5c-.8 0-5.1 1.7-9.6 3.9q-18.6 8.7-29.7 9.6c-3.6.3-8.9 1.1-11.7 1.7-8.6 1.8-12.5-.2-14.4-7.3-.7-2.6-.8-5.1-.1-7.4.5-1.9 6.8-11.5 14-21.3 7.2-9.9 15.2-21.8 18-26.5 2.7-4.7 5.8-9.8 6.9-11.4 3.6-5.2 5.7-8.7 10.2-16.9 2.5-4.6 8.6-13.5 13.5-20 5-6.5 9.7-13 10.5-14.4 3.4-5.9 5.7-9.4 8.8-13.5 1.7-2.4 3.2-4.6 3.2-4.9 0-1.2 9.3-13.7 14.7-19.5 4.6-5.2 14.3-13.5 21.8-18.9 8.4-6 10.6-7.2 29-17.1 1.7-.9 3.7-2.1 4.5-2.8.8-.6 9.6-5.3 19.5-10.4 16-8.2 25.9-12.4 40.5-17.6 2.5-.8 7.4-2.8 10.9-4.4s6.9-2.9 7.6-2.9c4.2 0 16.7-5.1 39-16 8.8-4.3 20.7-9.5 26.5-11.4 5.8-2 12.4-4.9 14.7-6.4 10.1-6.5 20.1-14.3 24-18.5 4.3-4.7 4.7-6 5.7-17.3.6-7.2-.6-9.3-8.2-14.7-6.5-4.4-12.3-5.7-18.7-3.9-2.7.7-6.1 1.6-7.5 1.9-2.8.5-37.4 10.8-41 12.1-.8.3-2.2.6-3 .8-3.4.4-10 2.6-18 5.9-6.6 2.8-10.9 3.8-19.3 4.7-10.6 1.1-10.8 1.1-13.2-1.2-3.2-3-3.3-8.9-.2-14.6 10.5-19.2 14.3-24.6 27.2-38.4 8.1-8.7 27.9-26.1 33.6-29.5 3.2-1.9 7.4-5 12.9-9.3 14.2-11.3 15.8-12.2 33-20 4.9-2.2 17-5.5 35-9.7 6.3-1.4 13.8-3.2 16.5-4 5.1-1.5 31.2-2.9 48.5-2.6 15.8.3 31.8.4 45.5.2 7.2-.1 25.2 0 40 .1 14.9.2 29.5 0 32.5-.5 7.4-1.2 30.5-6.5 35.8-8.3 10.2-3.3 32.4-16.6 38-22.7 2.2-2.4 2.3-2.8 1.2-8.8-1.6-8.8-2.4-10.6-6.1-12.5-4.8-2.4-10.8-1.3-27.8 5-8 3-18.6 6.4-23.6 7.5-4.9 1.2-11.8 2.8-15.2 3.6-9.3 2.2-14 1.9-17.9-1-4.2-3.2-4.9-5.5-3-9.9 2-4.8 5.9-6.8 29-14.7 5-1.7 10.9-4.2 13.2-5.5 2.3-1.4 6.9-3.5 10.3-4.8 3.3-1.4 8-3.7 10.3-5.3 2.4-1.7 6.3-4.3 8.8-5.9s7.5-5.1 11.2-7.9c3.7-2.7 8.2-6 10-7.3C931.6 301 939 295 942 291.5c1.9-2.2 5.3-6.1 7.7-8.6 3.9-4 4.5-5.3 5-10.3.8-7.3-1.3-11.3-8-15.3l-4.9-3-7.6 3.9c-4.2 2.1-8.5 4.6-9.6 5.6-1.2 1-4.6 3.5-7.7 5.5s-7.4 5.1-9.7 6.9c-12.1 9.7-18.2 13.8-20.7 13.8-1.9 0-2.9.6-3.2 2-.6 2.4-5.1 5-8.7 5-1.4 0-4.2 1-6.3 2.1-2.1 1.2-5.1 2.4-6.8 2.6-2.6.4-18.1 7.8-19.5 9.3-.7.7-9.6 5-10.4 5-.3 0-2.5.9-4.9 1.9-8.9 4.1-12.3 5.3-16.2 5.8-2.2.3-4.4.9-5 1.3-.5.4-4.1 1.5-8 2.5-8 2-18.6 5.6-23 7.8-8.6 4.2-9.1 4.4-28.4 8.3-8 1.5-28.2 3.7-34.3 3.7-2.4-.1-5.1-1.1-7.7-2.9-3.9-2.8-4.1-3.1-4.1-8.5 0-4.9.5-6.3 4-11.5 8.7-13 15-21.1 23.5-30.4 2.7-3.1 6.6-7.6 8.5-10 4.1-5.3 40.7-41.6 48.2-47.9 13.7-11.5 39.1-36 43.7-42.2 1.5-2 4.5-5.6 6.8-8 12.2-13 16.3-17.7 16.3-18.5 0-.6 2.5-4 5.5-7.6 7.1-8.6 13.8-19.3 17-26.7 3.3-7.9 3.4-17 .4-23.8-1.2-2.7-2.7-5.9-3.3-7.3-.6-1.3-4.3-5.7-8.1-9.7l-7-7.3-10.5.1c-8.7.1-11.9.5-18.5 2.8M254 260.4c0 .7.7 2.7 1.5 4.2.8 1.6 1.5 3.4 1.5 4 0 1.2-5.9 2.5-7.2 1.7-1-.5-1-9.7-.1-10.6 1.2-1.2 4.3-.7 4.3.7m-5 57.7c0 3.2.9 4.2 2.7 2.7 2.3-1.9 2.7 0 1 5.9-.9 3.2-1.9 7.1-2.2 8.8-.8 3.8-4.2 11.2-5.5 12-.8.5-.8 1.1 0 2 1.2 1.4-.6 5.5-2.4 5.5-.4 0-.3-.6.3-1.4.9-1.1.8-2.3-.6-5.2-1-2.2-2.2-4.2-2.8-4.6-.6-.5-.6-.8.1-.8 2.3 0 3.8-5.2 3.6-12.5-.1-5.3.3-7.7 1.4-8.6.8-.6 1.7-2.9 2-5.1.7-4.3 2.4-3.4 2.4 1.3m-9.8 11.6c2.3 2.1 2.6 10.3.3 10.3-1.1 0-1.5-1.2-1.5-4.8 0-2.6-.5-5.3-1.2-6-1.8-1.8.3-1.4 2.4.5m4.3 33.2c.3.5.1 1.2-.5 1.6s-.8 1.1-.5 1.6c.4.5.2.9-.3.9-1.1 0-2.3-3.6-1.4-4.4.8-.9 2-.7 2.7.3m84 9.1c.3.5-.1 1-.9 1-.9 0-1.6-.5-1.6-1 0-.6.4-1 .9-1 .6 0 1.3.4 1.6 1m8 2c.3.5-.1 1-.9 1-.9 0-1.6-.5-1.6-1 0-.6.4-1 .9-1 .6 0 1.3.4 1.6 1m-13.8.6c-.3.3-1.2.4-1.9.1-.8-.3-.5-.6.6-.6 1.1-.1 1.7.2 1.3.5M311.4 387c-1.4 1.4-3.9-1.4-2.9-3.1.5-.8 1.2-.6 2.3.5s1.3 1.9.6 2.6m-7.4.4c0 .3-.4.8-1 1.1-.5.3-1 .1-1-.4 0-.6.5-1.1 1-1.1.6 0 1 .2 1 .4m33.5 8.6c.3.5.1 1-.4 1-.6 0-1.1-.5-1.1-1 0-.6.2-1 .4-1 .3 0 .8.4 1.1 1m-35.5 9c0 .5-.4 1-1 1-.5 0-1-.5-1-1 0-.6.5-1 1-1 .6 0 1 .4 1 1m-12 15c0 .5-.2 1-.4 1-.3 0-.8-.5-1.1-1-.3-.6-.1-1 .4-1 .6 0 1.1.4 1.1 1M31 537.6c0 1.6-2.6 1.9-3.5.4-.4-.6-.4-1.8-.1-2.7.5-1.2.9-1.3 2.1-.3.8.7 1.5 1.9 1.5 2.6M86.5 604c.3.5.1 1-.4 1-.6 0-1.1-.5-1.1-1 0-.6.2-1 .4-1 .3 0 .8.4 1.1 1"/><path d="M246.5 324.2c-.3.7-.1 2.6.4 4.3l.8 3 1.2-2.8c.6-1.6 1.1-3.5 1.1-4.3 0-1.7-2.9-1.9-3.5-.2M42 482.9c0 .9 6.1 5.1 7.4 5.1.4 0-.2-1.4-1.4-3-2-2.8-6-4.2-6-2.1M54 500c0 .5.5 1 1 1 .6 0 1-.5 1-1 0-.6-.4-1-1-1-.5 0-1 .4-1 1"/></svg>